<svg xmlns="http://www.w3.org/2000/svg" viewBox="379 175 484 484" width="200" height="200">
  <!-- Cyntrisec logo — Ikeda variant. Original filled geometry, pure white. -->
  <path d="M0,0 L5,1 L17,10 L33,22 L46,31 L46,33 L32,43 L16,55 L-5,71 L-19,81 L-38,95 L-55,108 L-59,111 L-60,307 L-65,305 L-72,299 L-86,289 L-103,276 L-112,269 L-112,83 L-97,72 L-89,66 L-76,56 L-62,46 L-41,30 L-32,24 L-19,14 Z " fill="#f0f0f0" transform="translate(552,240)"/>
  <path d="M0,0 L8,6 L18,13 L35,26 L46,34 L52,38 L53,146 L70,159 L89,173 L102,183 L115,193 L119,196 L117,200 L101,212 L89,221 L87,221 L87,223 L79,229 L75,227 L62,217 L46,205 L30,193 L16,183 L3,173 L0,170 Z " fill="#f0f0f0" transform="translate(542,415)"/>
  <path d="M0,0 L4,1 L15,10 L31,22 L52,38 L70,51 L78,57 L78,180 L72,176 L51,160 L35,148 L27,142 L26,83 L12,73 L-1,63 L-20,49 L-37,36 L-42,33 L-41,30 L-31,23 L-12,9 L-1,1 Z " fill="#f0f0f0" transform="translate(620,190)"/>
  <path d="M0,0 L4,1 L20,13 L36,25 L52,37 L54,38 L54,40 L59,42 L76,55 L95,69 L112,82 L128,94 L133,99 L123,107 L104,121 L85,135 L76,142 L65,150 L64,150 L64,109 L60,107 L45,96 L29,84 L10,70 L-6,58 L-20,48 L-33,38 L-41,32 L-36,27 L-25,18 L-12,9 Z " fill="#f0f0f0" transform="translate(582,347)"/>
  <path d="M0,0 L4,1 L19,13 L30,21 L43,31 L43,34 L27,46 L13,56 L-5,69 L-19,80 L-33,90 L-53,105 L-61,111 L-70,118 L-75,117 L-89,106 L-105,94 L-115,87 L-115,85 L-97,72 L-82,61 L-63,47 L-46,34 L-32,24 L-13,10 L-5,4 Z " fill="#f0f0f0" transform="translate(757,476)"/>
  <path d="M0,0 L8,6 L20,15 L36,27 L49,37 L52,38 L52,60 L39,69 L29,77 L18,85 L2,98 L0,98 Z " fill="#f0f0f0" transform="translate(749,285)"/>
</svg>
